<?xml version="1.0" standalone="no"?>
<!DOCTYPE svg PUBLIC "-//W3C//DTD SVG 20010904//EN"
 "http://www.w3.org/TR/2001/REC-SVG-20010904/DTD/svg10.dtd">
<svg version="1.0" xmlns="http://www.w3.org/2000/svg"
 width="360.000000pt" height="360.000000pt" viewBox="0 0 360.000000 360.000000"
 preserveAspectRatio="xMidYMid meet">
<metadata>
Created by potrace 1.11, written by Peter Selinger 2001-2013
</metadata>
<g transform="translate(0.000000,360.000000) scale(0.100000,-0.100000)"
fill="#000000" stroke="none">
<path d="M1698 3049 c-42 -4 -119 -22 -172 -40 -333 -110 -525 -369 -503 -679
11 -151 49 -234 178 -387 113 -135 184 -248 211 -336 l20 -68 -25 -27 c-50
-54 -61 -115 -31 -173 14 -28 14 -34 0 -64 -28 -58 -12 -144 29 -168 11 -6 13
-23 9 -70 -3 -41 -1 -70 8 -87 18 -34 71 -67 118 -75 22 -4 40 -11 40 -16 0
-19 77 -93 115 -110 53 -24 147 -24 200 0 38 17 115 91 115 110 0 5 17 12 38
16 94 16 138 73 128 166 -4 45 -2 60 8 66 42 23 60 128 30 172 -15 21 -15 26
1 61 26 58 16 122 -26 166 l-33 34 22 68 c29 90 102 206 206 327 138 161 186
275 186 445 0 172 -79 347 -208 460 -179 158 -422 234 -664 209z m261 -209
c197 -55 334 -166 391 -317 62 -165 24 -309 -125 -473 -134 -149 -218 -298
-246 -436 l-13 -64 -170 0 -171 0 -18 81 c-31 136 -116 282 -251 429 -169 184
-189 387 -56 573 127 177 426 271 659 207z"/>
<path d="M1768 2609 c-19 -10 -23 -45 -10 -67 5 -7 26 -15 48 -18 132 -17 218
-67 230 -132 8 -46 20 -62 48 -62 33 0 46 19 46 66 0 94 -107 188 -245 213
-72 13 -95 13 -117 0z"/>
</g>
</svg>
